# xmcd
#
# Track frame offsets:
#  150
#  11832
#  22707
#  40037
#  52555
#  65752
#  80030
#  89760
#  100710
#  113387
#  125152
#  134680
#  145177
#  155230
#  169407
#  183297
#  196407
#  209602
#  222140
#  238412
#  250030
#  263160
#  276287
#  291142
#  308312
#
# Disc length: 4376 seconds
#
# Revision: 5
# Processed by: cddbd v1.5.2PL0 Copyright (c) Steve Scherf et al.
# Submitted via: AltoMP3_Maker 3.0
#
DISCID=6f111619
DTITLE=Crystal Gayle - 50 original tracks 2
DYEAR=1900
DGENRE=
TTITLE0=Don't it make my brown eyes blue
TTITLE1=Ready for the times to get better
TTITLE2=Someday soon
TTITLE3=I still miss someone
TTITLE4=Talking in your sleep
TTITLE5=Green door
TTITLE6=Paintin' this old town blue
TTITLE7=All in wanna do in life
TTITLE8=When I dream
TTITLE9=Time will prove I'm right
TTITLE10=Your kisses will
TTITLE11=Your old cold shoulder
TTITLE12=Too deep for tears
TTITLE13=We should be together
TTITLE14=River road
TTITLE15=I wanna come back to you
TTITLE16=Heart mender
TTITLE17=Everybody's reaching out for someone
TTITLE18=Just an old love
TTITLE19=Never ending song of love
TTITLE20=Once in a very blue moon
TTITLE21=The trouble with me (is you)
TTITLE22=Love to, can't do
TTITLE23=99% of the time
TTITLE24=Faithless love
EXTD=
EXTT0=
EXTT1=
EXTT2=
EXTT3=
EXTT4=
EXTT5=
EXTT6=
EXTT7=
EXTT8=
EXTT9=
EXTT10=
EXTT11=
EXTT12=
EXTT13=
EXTT14=
EXTT15=
EXTT16=
EXTT17=
EXTT18=
EXTT19=
EXTT20=
EXTT21=
EXTT22=
EXTT23=
EXTT24=
PLAYORDER=
